<?xml version="1.0" encoding="UTF-8" standalone="no"?>
<!-- Created with Inkscape (http://www.inkscape.org/) -->

<svg
   xmlns:dc="http://purl.org/dc/elements/1.1/"
   xmlns:cc="http://creativecommons.org/ns#"
   xmlns:rdf="http://www.w3.org/1999/02/22-rdf-syntax-ns#"
   xmlns:svg="http://www.w3.org/2000/svg"
   xmlns="http://www.w3.org/2000/svg"
   xmlns:sodipodi="http://sodipodi.sourceforge.net/DTD/sodipodi-0.dtd"
   xmlns:inkscape="http://www.inkscape.org/namespaces/inkscape"
   id="svg2"
   version="1.1"
   inkscape:version="0.48.4 r9939"
   width="1119.7513"
   height="375.9505"
   xml:space="preserve"
   sodipodi:docname="PHP Indonesia.ai"><metadata
     id="metadata8"><rdf:RDF><cc:Work
         rdf:about=""><dc:format>image/svg+xml</dc:format><dc:type
           rdf:resource="http://purl.org/dc/dcmitype/StillImage" /><dc:title></dc:title></cc:Work></rdf:RDF></metadata><defs
     id="defs6"><clipPath
       clipPathUnits="userSpaceOnUse"
       id="clipPath16"><path
         d="m 0,935.433 1369.134,0 L 1369.134,0 0,0 0,935.433 z"
         id="path18"
         inkscape:connector-curvature="0" /></clipPath></defs><sodipodi:namedview
     pagecolor="#ffffff"
     bordercolor="#666666"
     borderopacity="1"
     objecttolerance="10"
     gridtolerance="10"
     guidetolerance="10"
     inkscape:pageopacity="0"
     inkscape:pageshadow="2"
     inkscape:window-width="1366"
     inkscape:window-height="702"
     id="namedview4"
     showgrid="false"
     fit-margin-top="0"
     fit-margin-left="0"
     fit-margin-right="0"
     fit-margin-bottom="0"
     inkscape:zoom="0.5239014"
     inkscape:cx="640.04397"
     inkscape:cy="208.71909"
     inkscape:window-x="0"
     inkscape:window-y="187"
     inkscape:window-maximized="1"
     inkscape:current-layer="g10" /><g
     id="g10"
     inkscape:groupmode="layer"
     inkscape:label="PHP Indonesia"
     transform="matrix(1.25,0,0,-1.25,-295,771.62313)"><g
       id="g12"
       style="fill:#ffffff"><g
         id="g14"
         clip-path="url(#clipPath16)"
         style="fill:#ffffff"><g
           id="g20"
           transform="translate(850.7402,412.6514)"
           style="fill:#ffffff"><path
             d="m 0,0 c 3.34,0 6.1,0.281 8.275,0.836 2.176,0.557 3.922,1.316 5.239,2.277 1.316,0.961 2.228,2.102 2.734,3.416 0.506,1.317 0.758,2.785 0.758,4.405 0,3.441 -1.619,6.3 -4.858,8.578 -3.238,2.277 -8.808,4.732 -16.703,7.363 -3.441,1.217 -6.883,2.607 -10.324,4.176 -3.441,1.57 -6.529,3.543 -9.262,5.922 -2.734,2.379 -4.959,5.263 -6.679,8.654 -1.723,3.393 -2.582,7.516 -2.582,12.374 0,4.86 0.912,9.237 2.734,13.134 1.82,3.897 4.402,7.213 7.742,9.946 3.34,2.733 7.389,4.833 12.147,6.3 4.758,1.469 10.123,2.202 16.093,2.202 7.086,0 13.211,-0.759 18.372,-2.278 5.164,-1.518 9.416,-3.188 12.755,-5.01 L 29.607,63.62 c -2.933,1.519 -6.199,2.858 -9.793,4.024 -3.591,1.164 -7.919,1.745 -12.982,1.745 -5.666,0 -9.74,-0.784 -12.221,-2.353 -2.48,-1.569 -3.72,-3.974 -3.72,-7.213 0,-1.922 0.455,-3.542 1.365,-4.858 0.912,-1.317 2.203,-2.506 3.873,-3.569 1.67,-1.062 3.594,-2.025 5.769,-2.884 2.176,-0.86 4.581,-1.746 7.211,-2.657 5.467,-2.025 10.225,-4.023 14.274,-5.998 4.049,-1.972 7.416,-4.275 10.096,-6.908 2.683,-2.631 4.683,-5.719 5.998,-9.261 1.316,-3.543 1.974,-7.844 1.974,-12.907 0,-9.818 -3.441,-17.435 -10.324,-22.851 -6.883,-5.414 -17.26,-8.121 -31.127,-8.121 -4.656,0 -8.855,0.277 -12.602,0.834 -3.744,0.556 -7.06,1.24 -9.945,2.048 -2.883,0.811 -5.363,1.672 -7.439,2.582 -2.075,0.913 -3.821,1.772 -5.239,2.582 l 6.682,18.829 c 3.137,-1.723 7.01,-3.266 11.615,-4.633 C -12.324,0.684 -6.68,0 0,0"
             style="fill:#ffffff;fill-opacity:1;fill-rule:nonzero;stroke:none"
             id="path22"
             inkscape:connector-curvature="0" /></g><g
           id="g24"
           transform="translate(732.5938,394.585)"
           style="fill:#ffffff"><path
             d="m 0,0 0,105.219 71.061,0 0,-19.889 -47.373,0 0,-20.65 42.056,0 0,-19.434 -42.056,0 0,-25.357 50.863,0 L 74.551,0 0,0 z"
             style="fill:#ffffff;fill-opacity:1;fill-rule:nonzero;stroke:none"
             id="path26"
             inkscape:connector-curvature="0" /></g><g
           id="g28"
           transform="translate(690.9746,394.585)"
           style="fill:#ffffff"><path
             d="m 0,0 c -6.783,12.045 -14.123,23.938 -22.017,35.682 -7.896,11.74 -16.297,22.824 -25.204,33.25 l 0,-68.932 -23.383,0 0,105.219 19.283,0 c 3.341,-3.339 7.035,-7.438 11.085,-12.298 4.049,-4.858 8.173,-10.046 12.373,-15.562 4.202,-5.516 8.377,-11.236 12.527,-17.158 4.149,-5.922 8.046,-11.615 11.691,-17.082 l 0,62.1 23.534,0 L 19.889,0 0,0 z"
             style="fill:#ffffff;fill-opacity:1;fill-rule:nonzero;stroke:none"
             id="path30"
             inkscape:connector-curvature="0" /></g><g
           id="g32"
           transform="translate(522.875,447.2705)"
           style="fill:#ffffff"><path
             d="m 0,0 c 0,-5.162 0.633,-9.818 1.897,-13.969 1.266,-4.15 3.088,-7.719 5.466,-10.703 2.38,-2.986 5.288,-5.289 8.73,-6.908 3.443,-1.619 7.39,-2.43 11.843,-2.43 4.354,0 8.275,0.811 11.767,2.43 3.492,1.619 6.427,3.922 8.807,6.908 2.378,2.984 4.2,6.553 5.466,10.703 1.264,4.151 1.898,8.807 1.898,13.969 0,5.162 -0.634,9.844 -1.898,14.045 -1.266,4.201 -3.088,7.793 -5.466,10.781 -2.38,2.986 -5.315,5.288 -8.807,6.907 -3.492,1.62 -7.413,2.431 -11.767,2.431 -4.453,0 -8.4,-0.836 -11.843,-2.506 C 12.651,29.987 9.743,27.659 7.363,24.673 4.985,21.688 3.163,18.094 1.897,13.893 0.633,9.691 0,5.063 0,0 m 80.319,0 c 0,-9.008 -1.341,-16.93 -4.024,-23.762 -2.683,-6.832 -6.351,-12.551 -11.007,-17.156 -4.657,-4.607 -10.198,-8.074 -16.625,-10.4 -6.43,-2.328 -13.337,-3.493 -20.727,-3.493 -7.186,0 -13.968,1.165 -20.345,3.493 -6.377,2.326 -11.944,5.793 -16.701,10.4 -4.758,4.605 -8.504,10.324 -11.237,17.156 -2.733,6.832 -4.099,14.754 -4.099,23.762 0,9.01 1.418,16.93 4.252,23.762 2.833,6.833 6.654,12.576 11.462,17.234 4.81,4.655 10.376,8.147 16.703,10.476 6.327,2.328 12.982,3.491 19.965,3.491 7.187,0 13.969,-1.163 20.346,-3.491 C 54.659,49.143 60.226,45.651 64.983,40.996 69.741,36.338 73.487,30.595 76.22,23.762 78.953,16.93 80.319,9.01 80.319,0"
             style="fill:#ffffff;fill-opacity:1;fill-rule:nonzero;stroke:none"
             id="path34"
             inkscape:connector-curvature="0" /></g><g
           id="g36"
           transform="translate(417.3286,413.8682)"
           style="fill:#ffffff"><path
             d="m 0,0 c 1.114,-0.102 2.405,-0.178 3.872,-0.229 1.469,-0.05 3.215,-0.076 5.238,-0.076 11.843,0 20.625,2.987 26.344,8.959 5.718,5.973 8.579,14.221 8.579,24.748 0,11.034 -2.733,19.385 -8.199,25.054 -5.466,5.667 -14.121,8.502 -25.963,8.502 -1.62,0 -3.291,-0.025 -5.011,-0.076 C 3.139,66.831 1.52,66.705 0,66.502 L 0,0 z M 68.477,33.402 C 68.477,24.291 67.06,16.348 64.227,9.564 61.392,2.783 57.368,-2.836 52.156,-7.287 46.943,-11.742 40.591,-15.084 33.101,-17.309 25.61,-19.537 17.209,-20.65 7.896,-20.65 c -4.252,0 -9.21,0.177 -14.878,0.531 -5.669,0.355 -11.238,1.088 -16.704,2.203 l 0,102.486 c 5.466,1.013 11.16,1.696 17.082,2.05 5.921,0.355 11.009,0.532 15.259,0.532 9.009,0 17.183,-1.013 24.521,-3.038 7.339,-2.025 13.64,-5.213 18.903,-9.565 5.264,-4.353 9.313,-9.919 12.148,-16.701 2.833,-6.782 4.25,-14.932 4.25,-24.446"
             style="fill:#ffffff;fill-opacity:1;fill-rule:nonzero;stroke:none"
             id="path38"
             inkscape:connector-curvature="0" /></g><g
           id="g40"
           transform="translate(940.9492,597.1045)"
           style="fill:#ffffff"><path
             d="m 0,0 c -1.721,0 -3.416,-0.05 -5.086,-0.152 -1.67,-0.1 -3.111,-0.203 -4.328,-0.304 l 0,-30.367 7.439,0 c 8.2,0 14.373,1.114 18.524,3.341 4.152,2.228 6.226,6.377 6.226,12.451 0,2.935 -0.533,5.364 -1.593,7.288 -1.065,1.922 -2.582,3.466 -4.555,4.63 -1.975,1.164 -4.379,1.974 -7.213,2.43 C 6.58,-0.228 3.441,0 0,0 m -1.518,20.194 c 15.69,0 27.735,-2.759 36.137,-8.276 8.401,-5.516 12.602,-14.55 12.602,-27.102 0,-12.651 -4.252,-21.788 -12.754,-27.405 -8.502,-5.618 -20.651,-8.426 -36.442,-8.426 l -7.439,0 0,-151.505 -23.686,0 0,219.981 c 5.162,1.012 10.629,1.72 16.399,2.125 5.769,0.406 10.83,0.608 15.183,0.608"
             style="fill:#ffffff;fill-opacity:1;fill-rule:nonzero;stroke:none"
             id="path42"
             inkscape:connector-curvature="0" /></g><g
           id="g44"
           transform="translate(862.4316,616.083)"
           style="fill:#ffffff"><path
             d="m 0,0 23.686,0 0,-105.219 -23.686,0 0,44.638 -39.781,0 0,-44.638 -23.686,0 0,105.219 23.686,0 0,-40.236 39.781,0 L 0,0 z"
             style="fill:#ffffff;fill-opacity:1;fill-rule:nonzero;stroke:none"
             id="path46"
             inkscape:connector-curvature="0" /></g><g
           id="g48"
           transform="translate(736.8457,597.1045)"
           style="fill:#ffffff"><path
             d="m 0,0 c -1.723,0 -3.418,-0.05 -5.088,-0.152 -1.67,-0.1 -3.111,-0.203 -4.328,-0.304 l 0,-30.367 7.441,0 c 8.198,0 14.373,1.114 18.522,3.341 4.152,2.228 6.226,6.377 6.226,12.451 0,2.935 -0.531,5.364 -1.593,7.288 -1.065,1.922 -2.582,3.466 -4.555,4.63 -1.975,1.164 -4.377,1.974 -7.213,2.43 C 6.578,-0.228 3.441,0 0,0 m -1.52,20.194 c 15.69,0 27.735,-2.759 36.137,-8.276 8.401,-5.516 12.602,-14.55 12.602,-27.102 0,-12.651 -4.25,-21.788 -12.754,-27.405 -8.502,-5.618 -20.651,-8.426 -36.44,-8.426 l -7.441,0 0,-35.226 -23.686,0 0,103.702 c 5.164,1.012 10.629,1.72 16.399,2.125 5.769,0.406 10.83,0.608 15.183,0.608"
             style="fill:#ffffff;fill-opacity:1;fill-rule:nonzero;stroke:none"
             id="path50"
             inkscape:connector-curvature="0" /></g><g
           id="g52"
           transform="translate(1125.7891,316.5381)"
           style="fill:#ffffff"><path
             d="m 0,0 c -51.027,13.674 -62.99,65.369 -73.162,109.342 -6.609,28.576 -12.274,53.041 -25.891,53.041 l -50.881,0 0,-103.104 c 2.735,1.11 5.315,2.135 7.75,3.102 19.672,7.808 26.83,10.662 26.649,33.674 3.322,-1.571 7.037,-2.451 10.955,-2.451 4.519,0 8.766,1.171 12.455,3.222 1.307,-39.021 -9.381,-43.277 -41.498,-56.029 -6.547,-2.6 -14.211,-5.645 -23.141,-9.723 l -16.482,-7.529 0,18.094 0,132.401 0,11.656 10.058,0 1.598,0 62.537,0 c 32.102,0 39.696,-32.824 48.565,-71.165 8.718,-37.681 18.97,-81.984 56.5,-92.039 L 0,0 z"
             style="fill:#ffffff;fill-opacity:1;fill-rule:nonzero;stroke:none"
             id="path54"
             inkscape:connector-curvature="0" /></g><g
           id="g56"
           transform="translate(352.0225,394.585)"
           style="fill:#ffffff"><path
             d="m 0,0 c -6.782,12.045 -14.122,23.938 -22.016,35.682 -7.896,11.74 -16.297,22.824 -25.205,33.25 l 0,-68.932 -23.383,0 0,105.219 19.284,0 c 3.341,-3.339 7.035,-7.438 11.084,-12.298 4.049,-4.858 8.174,-10.046 12.374,-15.562 4.201,-5.516 8.376,-11.236 12.526,-17.158 4.15,-5.922 8.046,-11.615 11.692,-17.082 l 0,62.1 23.534,0 L 19.89,0 0,0 z"
             style="fill:#ffffff;fill-opacity:1;fill-rule:nonzero;stroke:none"
             id="path58"
             inkscape:connector-curvature="0" /></g><path
           d="m 236,499.804 23.686,0 0,-105.219 -23.686,0 0,105.219 z"
           style="fill:#ffffff;fill-opacity:1;fill-rule:nonzero;stroke:none"
           id="path60"
           inkscape:connector-curvature="0" /><g
           id="g62"
           transform="translate(1021.209,450.6104)"
           style="fill:#ffffff"><path
             d="m 0,0 c 8.168,0 14.795,-6.625 14.795,-14.795 0,-8.168 -6.627,-14.793 -14.795,-14.793 -8.168,0 -14.795,6.625 -14.795,14.793 C -14.795,-6.625 -8.168,0 0,0"
             style="fill:#ffffff;fill-opacity:1;fill-rule:nonzero;stroke:none"
             id="path64"
             inkscape:connector-curvature="0" /></g><text
           transform="matrix(1,0,0,-1,485.5288,349.6582)"
           id="text66"
           style="fill:#ffffff"><tspan
             style="font-size:42px;font-variant:normal;font-weight:normal;font-stretch:normal;writing-mode:lr-tb;fill:#ffffff;fill-opacity:1;fill-rule:nonzero;stroke:none;font-family:Myriad Pro;-inkscape-font-specification:MyriadPro-Regular"
             x="0 22.931999 43.973999 57.708 74.339996 94.584 129.612 149.856 158.75999 181.692 202.73399 216.636 237.09 257.33401 272.11801 291.73199 311.97601 320.88 343.81201 364.854 378.58801 388.79401 408.702 428.31601"
             y="0"
             sodipodi:role="line"
             id="tspan68">Bersama Berkarya Berjaya</tspan></text>
</g></g></g></svg>